<svg xmlns="http://www.w3.org/2000/svg" width="800" height="800">
  <g fill="#d3c0d2ff" stroke="none" stroke-width="6.8">
    <rect width="36.4" height="16.8" x="-18.2" y="-8.4" rx="8.4" transform="rotate(45 0 0)"/>
    <rect width="16.8" height="36.4" x="-8.4" y="-18.2" rx="8.4" transform="rotate(45 0 0)"/>
    <rect width="36.4" height="16.8" x="54.5" y="-8.4" rx="8.4" transform="rotate(45 73 0)"/>
    <rect width="16.8" height="36.4" x="64.3" y="-18.2" rx="8.4" transform="rotate(45 73 0)"/>
    <rect width="36.4" height="16.8" x="127.3" y="-8.4" rx="8.4" transform="rotate(45 145 0)"/>
    <rect width="16.8" height="36.4" x="137.1" y="-18.2" rx="8.4" transform="rotate(45 145 0)"/>
    <rect width="36.4" height="16.8" x="200" y="-8.4" rx="8.4" transform="rotate(45 218 0)"/>
    <rect width="16.8" height="36.4" x="209.8" y="-18.2" rx="8.4" transform="rotate(45 218 0)"/>
    <rect width="36.4" height="16.8" x="272.7" y="-8.4" rx="8.4" transform="rotate(45 291 0)"/>
    <rect width="16.8" height="36.4" x="282.5" y="-18.2" rx="8.4" transform="rotate(45 291 0)"/>
    <rect width="36.4" height="16.8" x="345.5" y="-8.4" rx="8.4" transform="rotate(45 364 0)"/>
    <rect width="16.8" height="36.4" x="355.2" y="-18.2" rx="8.4" transform="rotate(45 364 0)"/>
    <rect width="36.4" height="16.8" x="418.2" y="-8.4" rx="8.4" transform="rotate(45 436 0)"/>
    <rect width="16.8" height="36.4" x="428" y="-18.2" rx="8.4" transform="rotate(45 436 0)"/>
    <rect width="36.4" height="16.8" x="490.9" y="-8.4" rx="8.4" transform="rotate(45 509 0)"/>
    <rect width="16.8" height="36.4" x="500.7" y="-18.2" rx="8.4" transform="rotate(45 509 0)"/>
    <rect width="36.4" height="16.8" x="563.6" y="-8.4" rx="8.4" transform="rotate(45 582 0)"/>
    <rect width="16.8" height="36.4" x="573.4" y="-18.2" rx="8.4" transform="rotate(45 582 0)"/>
    <rect width="36.4" height="16.8" x="636.4" y="-8.4" rx="8.4" transform="rotate(45 655 0)"/>
    <rect width="16.8" height="36.4" x="646.2" y="-18.2" rx="8.4" transform="rotate(45 655 0)"/>
    <rect width="36.4" height="16.8" x="709.1" y="-8.4" rx="8.4" transform="rotate(45 727 0)"/>
    <rect width="16.8" height="36.4" x="718.9" y="-18.2" rx="8.4" transform="rotate(45 727 0)"/>
    <rect width="36.4" height="16.8" x="781.8" y="-8.4" rx="8.4" transform="rotate(45 800 0)"/>
    <rect width="16.8" height="36.4" x="791.6" y="-18.2" rx="8.4" transform="rotate(45 800 0)"/>
    <rect width="36.4" height="16.8" x="-18.2" y="64.3" rx="8.4" transform="rotate(45 0 73)"/>
    <rect width="16.8" height="36.4" x="-8.4" y="54.5" rx="8.4" transform="rotate(45 0 73)"/>
    <rect width="36.4" height="16.8" x="54.5" y="64.3" rx="8.4" transform="rotate(45 73 73)"/>
    <rect width="16.8" height="36.4" x="64.3" y="54.5" rx="8.4" transform="rotate(45 73 73)"/>
    <rect width="36.4" height="16.8" x="127.3" y="64.3" rx="8.4" transform="rotate(45 145 73)"/>
    <rect width="16.8" height="36.4" x="137.1" y="54.5" rx="8.4" transform="rotate(45 145 73)"/>
    <rect width="36.4" height="16.8" x="200" y="64.3" rx="8.4" transform="rotate(45 218 73)"/>
    <rect width="16.8" height="36.4" x="209.8" y="54.5" rx="8.4" transform="rotate(45 218 73)"/>
    <rect width="36.4" height="16.8" x="272.7" y="64.3" rx="8.4" transform="rotate(45 291 73)"/>
    <rect width="16.8" height="36.4" x="282.5" y="54.5" rx="8.4" transform="rotate(45 291 73)"/>
    <rect width="36.4" height="16.8" x="345.5" y="64.3" rx="8.4" transform="rotate(45 364 73)"/>
    <rect width="16.8" height="36.4" x="355.2" y="54.5" rx="8.4" transform="rotate(45 364 73)"/>
    <rect width="36.4" height="16.8" x="418.2" y="64.3" rx="8.4" transform="rotate(45 436 73)"/>
    <rect width="16.8" height="36.4" x="428" y="54.5" rx="8.4" transform="rotate(45 436 73)"/>
    <rect width="36.4" height="16.8" x="490.9" y="64.3" rx="8.4" transform="rotate(45 509 73)"/>
    <rect width="16.8" height="36.4" x="500.7" y="54.5" rx="8.4" transform="rotate(45 509 73)"/>
    <rect width="36.4" height="16.8" x="563.6" y="64.3" rx="8.4" transform="rotate(45 582 73)"/>
    <rect width="16.8" height="36.4" x="573.4" y="54.5" rx="8.4" transform="rotate(45 582 73)"/>
    <rect width="36.4" height="16.8" x="636.4" y="64.3" rx="8.4" transform="rotate(45 655 73)"/>
    <rect width="16.8" height="36.4" x="646.2" y="54.5" rx="8.4" transform="rotate(45 655 73)"/>
    <rect width="36.4" height="16.8" x="709.1" y="64.3" rx="8.4" transform="rotate(45 727 73)"/>
    <rect width="16.8" height="36.4" x="718.9" y="54.5" rx="8.4" transform="rotate(45 727 73)"/>
    <rect width="36.4" height="16.8" x="781.8" y="64.3" rx="8.4" transform="rotate(45 800 73)"/>
    <rect width="16.8" height="36.4" x="791.6" y="54.5" rx="8.4" transform="rotate(45 800 73)"/>
    <rect width="36.4" height="16.8" x="-18.2" y="137.1" rx="8.4" transform="rotate(45 0 145)"/>
    <rect width="16.8" height="36.4" x="-8.4" y="127.3" rx="8.4" transform="rotate(45 0 145)"/>
    <rect width="36.4" height="16.8" x="54.5" y="137.1" rx="8.4" transform="rotate(45 73 145)"/>
    <rect width="16.8" height="36.4" x="64.3" y="127.3" rx="8.4" transform="rotate(45 73 145)"/>
    <rect width="36.4" height="16.8" x="127.3" y="137.1" rx="8.4" transform="rotate(45 145 145)"/>
    <rect width="16.8" height="36.4" x="137.1" y="127.3" rx="8.4" transform="rotate(45 145 145)"/>
    <rect width="36.4" height="16.8" x="200" y="137.1" rx="8.4" transform="rotate(45 218 145)"/>
    <rect width="16.8" height="36.4" x="209.8" y="127.3" rx="8.4" transform="rotate(45 218 145)"/>
    <rect width="36.4" height="16.8" x="272.7" y="137.1" rx="8.4" transform="rotate(45 291 145)"/>
    <rect width="16.8" height="36.4" x="282.5" y="127.3" rx="8.4" transform="rotate(45 291 145)"/>
    <rect width="36.4" height="16.8" x="345.5" y="137.1" rx="8.4" transform="rotate(45 364 145)"/>
    <rect width="16.8" height="36.4" x="355.2" y="127.3" rx="8.4" transform="rotate(45 364 145)"/>
    <rect width="36.4" height="16.8" x="418.2" y="137.1" rx="8.4" transform="rotate(45 436 145)"/>
    <rect width="16.8" height="36.4" x="428" y="127.3" rx="8.4" transform="rotate(45 436 145)"/>
    <rect width="36.4" height="16.8" x="490.9" y="137.1" rx="8.4" transform="rotate(45 509 145)"/>
    <rect width="16.8" height="36.4" x="500.7" y="127.3" rx="8.4" transform="rotate(45 509 145)"/>
    <rect width="36.4" height="16.8" x="563.6" y="137.1" rx="8.4" transform="rotate(45 582 145)"/>
    <rect width="16.8" height="36.4" x="573.4" y="127.3" rx="8.4" transform="rotate(45 582 145)"/>
    <rect width="36.4" height="16.8" x="636.4" y="137.1" rx="8.4" transform="rotate(45 655 145)"/>
    <rect width="16.8" height="36.4" x="646.2" y="127.3" rx="8.4" transform="rotate(45 655 145)"/>
    <rect width="36.4" height="16.8" x="709.1" y="137.1" rx="8.4" transform="rotate(45 727 145)"/>
    <rect width="16.8" height="36.4" x="718.9" y="127.3" rx="8.4" transform="rotate(45 727 145)"/>
    <rect width="36.4" height="16.8" x="781.8" y="137.1" rx="8.4" transform="rotate(45 800 145)"/>
    <rect width="16.8" height="36.4" x="791.6" y="127.3" rx="8.4" transform="rotate(45 800 145)"/>
    <rect width="36.4" height="16.8" x="-18.2" y="209.8" rx="8.4" transform="rotate(45 0 218)"/>
    <rect width="16.8" height="36.4" x="-8.4" y="200" rx="8.4" transform="rotate(45 0 218)"/>
    <rect width="36.4" height="16.8" x="54.5" y="209.8" rx="8.4" transform="rotate(45 73 218)"/>
    <rect width="16.8" height="36.4" x="64.3" y="200" rx="8.4" transform="rotate(45 73 218)"/>
    <rect width="36.4" height="16.8" x="127.3" y="209.8" rx="8.4" transform="rotate(45 145 218)"/>
    <rect width="16.8" height="36.4" x="137.1" y="200" rx="8.4" transform="rotate(45 145 218)"/>
    <rect width="36.4" height="16.8" x="200" y="209.8" rx="8.4" transform="rotate(45 218 218)"/>
    <rect width="16.8" height="36.4" x="209.8" y="200" rx="8.4" transform="rotate(45 218 218)"/>
    <rect width="36.4" height="16.8" x="272.7" y="209.8" rx="8.4" transform="rotate(45 291 218)"/>
    <rect width="16.8" height="36.4" x="282.5" y="200" rx="8.4" transform="rotate(45 291 218)"/>
    <rect width="36.4" height="16.8" x="345.5" y="209.8" rx="8.4" transform="rotate(45 364 218)"/>
    <rect width="16.8" height="36.4" x="355.2" y="200" rx="8.4" transform="rotate(45 364 218)"/>
    <rect width="36.4" height="16.8" x="418.2" y="209.8" rx="8.4" transform="rotate(45 436 218)"/>
    <rect width="16.8" height="36.4" x="428" y="200" rx="8.4" transform="rotate(45 436 218)"/>
    <rect width="36.4" height="16.8" x="490.9" y="209.8" rx="8.4" transform="rotate(45 509 218)"/>
    <rect width="16.8" height="36.4" x="500.7" y="200" rx="8.4" transform="rotate(45 509 218)"/>
    <rect width="36.4" height="16.8" x="563.6" y="209.8" rx="8.4" transform="rotate(45 582 218)"/>
    <rect width="16.8" height="36.4" x="573.4" y="200" rx="8.4" transform="rotate(45 582 218)"/>
    <rect width="36.4" height="16.8" x="636.4" y="209.8" rx="8.4" transform="rotate(45 655 218)"/>
    <rect width="16.8" height="36.4" x="646.2" y="200" rx="8.4" transform="rotate(45 655 218)"/>
    <rect width="36.4" height="16.8" x="709.1" y="209.8" rx="8.4" transform="rotate(45 727 218)"/>
    <rect width="16.8" height="36.4" x="718.9" y="200" rx="8.4" transform="rotate(45 727 218)"/>
    <rect width="36.4" height="16.8" x="781.8" y="209.8" rx="8.4" transform="rotate(45 800 218)"/>
    <rect width="16.8" height="36.4" x="791.6" y="200" rx="8.4" transform="rotate(45 800 218)"/>
    <rect width="36.4" height="16.8" x="-18.2" y="282.5" rx="8.4" transform="rotate(45 0 291)"/>
    <rect width="16.8" height="36.4" x="-8.4" y="272.7" rx="8.4" transform="rotate(45 0 291)"/>
    <rect width="36.4" height="16.8" x="54.5" y="282.5" rx="8.4" transform="rotate(45 73 291)"/>
    <rect width="16.8" height="36.4" x="64.3" y="272.7" rx="8.4" transform="rotate(45 73 291)"/>
    <rect width="36.4" height="16.8" x="127.3" y="282.5" rx="8.4" transform="rotate(45 145 291)"/>
    <rect width="16.8" height="36.4" x="137.1" y="272.7" rx="8.4" transform="rotate(45 145 291)"/>
    <rect width="36.4" height="16.8" x="200" y="282.5" rx="8.4" transform="rotate(45 218 291)"/>
    <rect width="16.8" height="36.4" x="209.8" y="272.7" rx="8.4" transform="rotate(45 218 291)"/>
    <rect width="36.4" height="16.8" x="272.7" y="282.5" rx="8.4" transform="rotate(45 291 291)"/>
    <rect width="16.8" height="36.4" x="282.5" y="272.7" rx="8.4" transform="rotate(45 291 291)"/>
    <rect width="36.4" height="16.8" x="345.5" y="282.5" rx="8.4" transform="rotate(45 364 291)"/>
    <rect width="16.8" height="36.4" x="355.2" y="272.7" rx="8.4" transform="rotate(45 364 291)"/>
    <rect width="36.4" height="16.8" x="418.2" y="282.5" rx="8.4" transform="rotate(45 436 291)"/>
    <rect width="16.8" height="36.4" x="428" y="272.7" rx="8.4" transform="rotate(45 436 291)"/>
    <rect width="36.4" height="16.8" x="490.9" y="282.5" rx="8.4" transform="rotate(45 509 291)"/>
    <rect width="16.8" height="36.4" x="500.7" y="272.7" rx="8.4" transform="rotate(45 509 291)"/>
    <rect width="36.4" height="16.8" x="563.6" y="282.5" rx="8.4" transform="rotate(45 582 291)"/>
    <rect width="16.8" height="36.4" x="573.4" y="272.7" rx="8.4" transform="rotate(45 582 291)"/>
    <rect width="36.4" height="16.8" x="636.4" y="282.5" rx="8.4" transform="rotate(45 655 291)"/>
    <rect width="16.8" height="36.4" x="646.2" y="272.7" rx="8.4" transform="rotate(45 655 291)"/>
    <rect width="36.4" height="16.8" x="709.1" y="282.5" rx="8.4" transform="rotate(45 727 291)"/>
    <rect width="16.8" height="36.4" x="718.9" y="272.7" rx="8.4" transform="rotate(45 727 291)"/>
    <rect width="36.4" height="16.8" x="781.8" y="282.5" rx="8.4" transform="rotate(45 800 291)"/>
    <rect width="16.8" height="36.4" x="791.6" y="272.7" rx="8.4" transform="rotate(45 800 291)"/>
    <rect width="36.4" height="16.8" x="-18.2" y="355.2" rx="8.4" transform="rotate(45 0 364)"/>
    <rect width="16.8" height="36.4" x="-8.4" y="345.5" rx="8.4" transform="rotate(45 0 364)"/>
    <rect width="36.4" height="16.8" x="54.5" y="355.2" rx="8.4" transform="rotate(45 73 364)"/>
    <rect width="16.8" height="36.4" x="64.3" y="345.5" rx="8.4" transform="rotate(45 73 364)"/>
    <rect width="36.4" height="16.8" x="127.3" y="355.2" rx="8.4" transform="rotate(45 145 364)"/>
    <rect width="16.8" height="36.4" x="137.1" y="345.5" rx="8.4" transform="rotate(45 145 364)"/>
    <rect width="36.4" height="16.8" x="200" y="355.2" rx="8.4" transform="rotate(45 218 364)"/>
    <rect width="16.8" height="36.4" x="209.8" y="345.5" rx="8.4" transform="rotate(45 218 364)"/>
    <rect width="36.4" height="16.8" x="272.7" y="355.2" rx="8.4" transform="rotate(45 291 364)"/>
    <rect width="16.8" height="36.4" x="282.5" y="345.5" rx="8.4" transform="rotate(45 291 364)"/>
    <rect width="36.4" height="16.8" x="345.5" y="355.2" rx="8.4" transform="rotate(45 364 364)"/>
    <rect width="16.8" height="36.4" x="355.2" y="345.5" rx="8.4" transform="rotate(45 364 364)"/>
    <rect width="36.4" height="16.8" x="418.2" y="355.2" rx="8.4" transform="rotate(45 436 364)"/>
    <rect width="16.8" height="36.4" x="428" y="345.5" rx="8.4" transform="rotate(45 436 364)"/>
    <rect width="36.4" height="16.8" x="490.9" y="355.2" rx="8.4" transform="rotate(45 509 364)"/>
    <rect width="16.8" height="36.4" x="500.7" y="345.5" rx="8.4" transform="rotate(45 509 364)"/>
    <rect width="36.4" height="16.8" x="563.6" y="355.2" rx="8.4" transform="rotate(45 582 364)"/>
    <rect width="16.8" height="36.4" x="573.4" y="345.5" rx="8.4" transform="rotate(45 582 364)"/>
    <rect width="36.4" height="16.8" x="636.4" y="355.2" rx="8.4" transform="rotate(45 655 364)"/>
    <rect width="16.8" height="36.4" x="646.2" y="345.5" rx="8.4" transform="rotate(45 655 364)"/>
    <rect width="36.4" height="16.8" x="709.1" y="355.2" rx="8.4" transform="rotate(45 727 364)"/>
    <rect width="16.8" height="36.4" x="718.9" y="345.5" rx="8.4" transform="rotate(45 727 364)"/>
    <rect width="36.4" height="16.8" x="781.8" y="355.2" rx="8.4" transform="rotate(45 800 364)"/>
    <rect width="16.8" height="36.4" x="791.6" y="345.5" rx="8.4" transform="rotate(45 800 364)"/>
    <rect width="36.4" height="16.8" x="-18.2" y="428" rx="8.4" transform="rotate(45 0 436)"/>
    <rect width="16.8" height="36.4" x="-8.4" y="418.2" rx="8.4" transform="rotate(45 0 436)"/>
    <rect width="36.4" height="16.8" x="54.5" y="428" rx="8.4" transform="rotate(45 73 436)"/>
    <rect width="16.8" height="36.4" x="64.3" y="418.2" rx="8.4" transform="rotate(45 73 436)"/>
    <rect width="36.4" height="16.8" x="127.3" y="428" rx="8.4" transform="rotate(45 145 436)"/>
    <rect width="16.8" height="36.4" x="137.1" y="418.2" rx="8.4" transform="rotate(45 145 436)"/>
    <rect width="36.4" height="16.8" x="200" y="428" rx="8.4" transform="rotate(45 218 436)"/>
    <rect width="16.8" height="36.4" x="209.8" y="418.2" rx="8.4" transform="rotate(45 218 436)"/>
    <rect width="36.4" height="16.8" x="272.7" y="428" rx="8.4" transform="rotate(45 291 436)"/>
    <rect width="16.8" height="36.4" x="282.5" y="418.2" rx="8.4" transform="rotate(45 291 436)"/>
    <rect width="36.4" height="16.8" x="345.5" y="428" rx="8.4" transform="rotate(45 364 436)"/>
    <rect width="16.8" height="36.4" x="355.2" y="418.2" rx="8.4" transform="rotate(45 364 436)"/>
    <rect width="36.4" height="16.8" x="418.2" y="428" rx="8.4" transform="rotate(45 436 436)"/>
    <rect width="16.8" height="36.4" x="428" y="418.2" rx="8.4" transform="rotate(45 436 436)"/>
    <rect width="36.4" height="16.8" x="490.9" y="428" rx="8.4" transform="rotate(45 509 436)"/>
    <rect width="16.8" height="36.4" x="500.7" y="418.2" rx="8.4" transform="rotate(45 509 436)"/>
    <rect width="36.4" height="16.8" x="563.6" y="428" rx="8.4" transform="rotate(45 582 436)"/>
    <rect width="16.8" height="36.4" x="573.4" y="418.2" rx="8.4" transform="rotate(45 582 436)"/>
    <rect width="36.4" height="16.8" x="636.4" y="428" rx="8.4" transform="rotate(45 655 436)"/>
    <rect width="16.8" height="36.4" x="646.2" y="418.2" rx="8.4" transform="rotate(45 655 436)"/>
    <rect width="36.4" height="16.8" x="709.1" y="428" rx="8.4" transform="rotate(45 727 436)"/>
    <rect width="16.8" height="36.4" x="718.9" y="418.2" rx="8.4" transform="rotate(45 727 436)"/>
    <rect width="36.4" height="16.8" x="781.8" y="428" rx="8.4" transform="rotate(45 800 436)"/>
    <rect width="16.8" height="36.4" x="791.6" y="418.2" rx="8.4" transform="rotate(45 800 436)"/>
    <rect width="36.4" height="16.8" x="-18.2" y="500.7" rx="8.4" transform="rotate(45 0 509)"/>
    <rect width="16.8" height="36.4" x="-8.4" y="490.9" rx="8.4" transform="rotate(45 0 509)"/>
    <rect width="36.4" height="16.8" x="54.5" y="500.7" rx="8.4" transform="rotate(45 73 509)"/>
    <rect width="16.8" height="36.4" x="64.3" y="490.9" rx="8.4" transform="rotate(45 73 509)"/>
    <rect width="36.4" height="16.8" x="127.3" y="500.7" rx="8.4" transform="rotate(45 145 509)"/>
    <rect width="16.8" height="36.4" x="137.1" y="490.9" rx="8.4" transform="rotate(45 145 509)"/>
    <rect width="36.4" height="16.8" x="200" y="500.7" rx="8.4" transform="rotate(45 218 509)"/>
    <rect width="16.8" height="36.4" x="209.8" y="490.9" rx="8.4" transform="rotate(45 218 509)"/>
    <rect width="36.4" height="16.8" x="272.7" y="500.7" rx="8.4" transform="rotate(45 291 509)"/>
    <rect width="16.8" height="36.4" x="282.5" y="490.9" rx="8.4" transform="rotate(45 291 509)"/>
    <rect width="36.4" height="16.8" x="345.5" y="500.7" rx="8.4" transform="rotate(45 364 509)"/>
    <rect width="16.8" height="36.4" x="355.2" y="490.9" rx="8.4" transform="rotate(45 364 509)"/>
    <rect width="36.4" height="16.8" x="418.2" y="500.7" rx="8.4" transform="rotate(45 436 509)"/>
    <rect width="16.8" height="36.4" x="428" y="490.9" rx="8.4" transform="rotate(45 436 509)"/>
    <rect width="36.4" height="16.8" x="490.9" y="500.7" rx="8.4" transform="rotate(45 509 509)"/>
    <rect width="16.8" height="36.4" x="500.7" y="490.9" rx="8.4" transform="rotate(45 509 509)"/>
    <rect width="36.4" height="16.8" x="563.6" y="500.7" rx="8.4" transform="rotate(45 582 509)"/>
    <rect width="16.8" height="36.4" x="573.4" y="490.9" rx="8.4" transform="rotate(45 582 509)"/>
    <rect width="36.4" height="16.8" x="636.4" y="500.7" rx="8.4" transform="rotate(45 655 509)"/>
    <rect width="16.8" height="36.4" x="646.2" y="490.9" rx="8.4" transform="rotate(45 655 509)"/>
    <rect width="36.4" height="16.8" x="709.1" y="500.7" rx="8.4" transform="rotate(45 727 509)"/>
    <rect width="16.8" height="36.4" x="718.9" y="490.9" rx="8.4" transform="rotate(45 727 509)"/>
    <rect width="36.4" height="16.8" x="781.8" y="500.7" rx="8.4" transform="rotate(45 800 509)"/>
    <rect width="16.8" height="36.4" x="791.6" y="490.9" rx="8.4" transform="rotate(45 800 509)"/>
    <rect width="36.4" height="16.8" x="-18.2" y="573.4" rx="8.4" transform="rotate(45 0 582)"/>
    <rect width="16.8" height="36.4" x="-8.4" y="563.6" rx="8.4" transform="rotate(45 0 582)"/>
    <rect width="36.4" height="16.8" x="54.5" y="573.4" rx="8.4" transform="rotate(45 73 582)"/>
    <rect width="16.8" height="36.4" x="64.3" y="563.6" rx="8.4" transform="rotate(45 73 582)"/>
    <rect width="36.4" height="16.8" x="127.3" y="573.4" rx="8.4" transform="rotate(45 145 582)"/>
    <rect width="16.8" height="36.4" x="137.1" y="563.6" rx="8.4" transform="rotate(45 145 582)"/>
    <rect width="36.4" height="16.8" x="200" y="573.4" rx="8.4" transform="rotate(45 218 582)"/>
    <rect width="16.8" height="36.4" x="209.8" y="563.6" rx="8.4" transform="rotate(45 218 582)"/>
    <rect width="36.4" height="16.8" x="272.7" y="573.4" rx="8.4" transform="rotate(45 291 582)"/>
    <rect width="16.8" height="36.4" x="282.5" y="563.6" rx="8.4" transform="rotate(45 291 582)"/>
    <rect width="36.4" height="16.8" x="345.5" y="573.4" rx="8.4" transform="rotate(45 364 582)"/>
    <rect width="16.8" height="36.4" x="355.2" y="563.6" rx="8.4" transform="rotate(45 364 582)"/>
    <rect width="36.4" height="16.8" x="418.2" y="573.4" rx="8.4" transform="rotate(45 436 582)"/>
    <rect width="16.8" height="36.4" x="428" y="563.6" rx="8.4" transform="rotate(45 436 582)"/>
    <rect width="36.4" height="16.8" x="490.9" y="573.4" rx="8.4" transform="rotate(45 509 582)"/>
    <rect width="16.8" height="36.4" x="500.7" y="563.6" rx="8.4" transform="rotate(45 509 582)"/>
    <rect width="36.4" height="16.8" x="563.6" y="573.4" rx="8.4" transform="rotate(45 582 582)"/>
    <rect width="16.8" height="36.4" x="573.4" y="563.6" rx="8.4" transform="rotate(45 582 582)"/>
    <rect width="36.4" height="16.8" x="636.4" y="573.4" rx="8.4" transform="rotate(45 655 582)"/>
    <rect width="16.8" height="36.4" x="646.2" y="563.6" rx="8.4" transform="rotate(45 655 582)"/>
    <rect width="36.4" height="16.8" x="709.1" y="573.4" rx="8.4" transform="rotate(45 727 582)"/>
    <rect width="16.8" height="36.4" x="718.9" y="563.6" rx="8.4" transform="rotate(45 727 582)"/>
    <rect width="36.4" height="16.8" x="781.8" y="573.4" rx="8.4" transform="rotate(45 800 582)"/>
    <rect width="16.8" height="36.4" x="791.6" y="563.6" rx="8.4" transform="rotate(45 800 582)"/>
    <rect width="36.4" height="16.8" x="-18.2" y="646.2" rx="8.4" transform="rotate(45 0 655)"/>
    <rect width="16.8" height="36.4" x="-8.4" y="636.4" rx="8.4" transform="rotate(45 0 655)"/>
    <rect width="36.4" height="16.8" x="54.5" y="646.2" rx="8.4" transform="rotate(45 73 655)"/>
    <rect width="16.8" height="36.4" x="64.3" y="636.4" rx="8.4" transform="rotate(45 73 655)"/>
    <rect width="36.4" height="16.8" x="127.3" y="646.2" rx="8.4" transform="rotate(45 145 655)"/>
    <rect width="16.8" height="36.4" x="137.1" y="636.4" rx="8.4" transform="rotate(45 145 655)"/>
    <rect width="36.4" height="16.8" x="200" y="646.2" rx="8.4" transform="rotate(45 218 655)"/>
    <rect width="16.8" height="36.4" x="209.8" y="636.4" rx="8.4" transform="rotate(45 218 655)"/>
    <rect width="36.4" height="16.8" x="272.7" y="646.2" rx="8.4" transform="rotate(45 291 655)"/>
    <rect width="16.8" height="36.4" x="282.5" y="636.4" rx="8.4" transform="rotate(45 291 655)"/>
    <rect width="36.4" height="16.8" x="345.5" y="646.2" rx="8.4" transform="rotate(45 364 655)"/>
    <rect width="16.8" height="36.4" x="355.2" y="636.4" rx="8.4" transform="rotate(45 364 655)"/>
    <rect width="36.4" height="16.8" x="418.2" y="646.2" rx="8.4" transform="rotate(45 436 655)"/>
    <rect width="16.8" height="36.4" x="428" y="636.4" rx="8.4" transform="rotate(45 436 655)"/>
    <rect width="36.4" height="16.8" x="490.9" y="646.2" rx="8.4" transform="rotate(45 509 655)"/>
    <rect width="16.8" height="36.4" x="500.7" y="636.4" rx="8.4" transform="rotate(45 509 655)"/>
    <rect width="36.4" height="16.8" x="563.6" y="646.2" rx="8.4" transform="rotate(45 582 655)"/>
    <rect width="16.8" height="36.4" x="573.4" y="636.4" rx="8.4" transform="rotate(45 582 655)"/>
    <rect width="36.4" height="16.8" x="636.4" y="646.2" rx="8.4" transform="rotate(45 655 655)"/>
    <rect width="16.8" height="36.4" x="646.2" y="636.4" rx="8.4" transform="rotate(45 655 655)"/>
    <rect width="36.4" height="16.8" x="709.1" y="646.2" rx="8.4" transform="rotate(45 727 655)"/>
    <rect width="16.8" height="36.4" x="718.9" y="636.4" rx="8.4" transform="rotate(45 727 655)"/>
    <rect width="36.4" height="16.8" x="781.8" y="646.2" rx="8.4" transform="rotate(45 800 655)"/>
    <rect width="16.8" height="36.4" x="791.6" y="636.4" rx="8.4" transform="rotate(45 800 655)"/>
    <rect width="36.4" height="16.8" x="-18.2" y="718.9" rx="8.4" transform="rotate(45 0 727)"/>
    <rect width="16.8" height="36.4" x="-8.4" y="709.1" rx="8.4" transform="rotate(45 0 727)"/>
    <rect width="36.4" height="16.8" x="54.5" y="718.9" rx="8.4" transform="rotate(45 73 727)"/>
    <rect width="16.8" height="36.4" x="64.3" y="709.1" rx="8.4" transform="rotate(45 73 727)"/>
    <rect width="36.4" height="16.8" x="127.3" y="718.9" rx="8.4" transform="rotate(45 145 727)"/>
    <rect width="16.8" height="36.4" x="137.1" y="709.1" rx="8.4" transform="rotate(45 145 727)"/>
    <rect width="36.4" height="16.8" x="200" y="718.9" rx="8.4" transform="rotate(45 218 727)"/>
    <rect width="16.8" height="36.4" x="209.8" y="709.1" rx="8.4" transform="rotate(45 218 727)"/>
    <rect width="36.4" height="16.8" x="272.7" y="718.9" rx="8.4" transform="rotate(45 291 727)"/>
    <rect width="16.8" height="36.4" x="282.5" y="709.1" rx="8.4" transform="rotate(45 291 727)"/>
    <rect width="36.4" height="16.8" x="345.5" y="718.9" rx="8.4" transform="rotate(45 364 727)"/>
    <rect width="16.8" height="36.4" x="355.2" y="709.1" rx="8.4" transform="rotate(45 364 727)"/>
    <rect width="36.4" height="16.8" x="418.2" y="718.9" rx="8.4" transform="rotate(45 436 727)"/>
    <rect width="16.8" height="36.4" x="428" y="709.1" rx="8.4" transform="rotate(45 436 727)"/>
    <rect width="36.4" height="16.8" x="490.9" y="718.9" rx="8.4" transform="rotate(45 509 727)"/>
    <rect width="16.8" height="36.4" x="500.7" y="709.1" rx="8.4" transform="rotate(45 509 727)"/>
    <rect width="36.4" height="16.8" x="563.6" y="718.9" rx="8.4" transform="rotate(45 582 727)"/>
    <rect width="16.8" height="36.4" x="573.4" y="709.1" rx="8.4" transform="rotate(45 582 727)"/>
    <rect width="36.4" height="16.8" x="636.4" y="718.9" rx="8.4" transform="rotate(45 655 727)"/>
    <rect width="16.8" height="36.4" x="646.2" y="709.1" rx="8.4" transform="rotate(45 655 727)"/>
    <rect width="36.4" height="16.8" x="709.1" y="718.9" rx="8.4" transform="rotate(45 727 727)"/>
    <rect width="16.8" height="36.4" x="718.9" y="709.1" rx="8.4" transform="rotate(45 727 727)"/>
    <rect width="36.4" height="16.8" x="781.8" y="718.9" rx="8.4" transform="rotate(45 800 727)"/>
    <rect width="16.8" height="36.4" x="791.6" y="709.1" rx="8.4" transform="rotate(45 800 727)"/>
    <rect width="36.4" height="16.8" x="-18.2" y="791.6" rx="8.4" transform="rotate(45 0 800)"/>
    <rect width="16.8" height="36.4" x="-8.4" y="781.8" rx="8.4" transform="rotate(45 0 800)"/>
    <rect width="36.4" height="16.8" x="54.5" y="791.6" rx="8.4" transform="rotate(45 73 800)"/>
    <rect width="16.8" height="36.4" x="64.3" y="781.8" rx="8.4" transform="rotate(45 73 800)"/>
    <rect width="36.4" height="16.8" x="127.3" y="791.6" rx="8.4" transform="rotate(45 145 800)"/>
    <rect width="16.8" height="36.4" x="137.1" y="781.8" rx="8.4" transform="rotate(45 145 800)"/>
    <rect width="36.4" height="16.8" x="200" y="791.6" rx="8.4" transform="rotate(45 218 800)"/>
    <rect width="16.8" height="36.4" x="209.8" y="781.8" rx="8.4" transform="rotate(45 218 800)"/>
    <rect width="36.4" height="16.8" x="272.7" y="791.6" rx="8.4" transform="rotate(45 291 800)"/>
    <rect width="16.8" height="36.4" x="282.5" y="781.8" rx="8.4" transform="rotate(45 291 800)"/>
    <rect width="36.4" height="16.8" x="345.5" y="791.6" rx="8.4" transform="rotate(45 364 800)"/>
    <rect width="16.8" height="36.4" x="355.2" y="781.8" rx="8.4" transform="rotate(45 364 800)"/>
    <rect width="36.4" height="16.8" x="418.2" y="791.6" rx="8.4" transform="rotate(45 436 800)"/>
    <rect width="16.8" height="36.4" x="428" y="781.8" rx="8.4" transform="rotate(45 436 800)"/>
    <rect width="36.4" height="16.8" x="490.9" y="791.6" rx="8.4" transform="rotate(45 509 800)"/>
    <rect width="16.8" height="36.4" x="500.7" y="781.8" rx="8.4" transform="rotate(45 509 800)"/>
    <rect width="36.4" height="16.8" x="563.6" y="791.6" rx="8.4" transform="rotate(45 582 800)"/>
    <rect width="16.8" height="36.4" x="573.4" y="781.8" rx="8.4" transform="rotate(45 582 800)"/>
    <rect width="36.4" height="16.8" x="636.4" y="791.6" rx="8.4" transform="rotate(45 655 800)"/>
    <rect width="16.8" height="36.4" x="646.2" y="781.8" rx="8.4" transform="rotate(45 655 800)"/>
    <rect width="36.4" height="16.8" x="709.1" y="791.6" rx="8.4" transform="rotate(45 727 800)"/>
    <rect width="16.8" height="36.4" x="718.9" y="781.8" rx="8.4" transform="rotate(45 727 800)"/>
    <rect width="36.4" height="16.8" x="781.8" y="791.6" rx="8.4" transform="rotate(45 800 800)"/>
    <rect width="16.8" height="36.4" x="791.6" y="781.8" rx="8.4" transform="rotate(45 800 800)"/>
  </g>
</svg>
